<svg t="1747232730141" class="icon" viewBox="0 0 1024 1024" version="1.1" xmlns="http://www.w3.org/2000/svg" p-id="871" width="32" height="32"><path d="M538.0096 90.6496V47.5648h-46.08v43.0848c-235.0336 12.032-422.5792 207.0528-422.5792 445.0304 0 245.76 199.9104 445.6192 445.6192 445.6192s445.6192-199.9104 445.6192-445.6192c0-237.9776-187.4688-432.9984-422.5792-445.0304z m-23.04 844.5696c-220.3136 0-399.5392-179.2-399.5392-399.5392s179.2-399.5392 399.5392-399.5392 399.5392 179.2 399.5392 399.5392-179.2256 399.5392-399.5392 399.5392z" p-id="872"></path><path d="M538.0096 502.1184v-178.7392h-46.08v178.7392a40.704 40.704 0 1 0 56.6016 56.6016h209.0752v-46.08h-209.0752a41.1136 41.1136 0 0 0-10.5216-10.5216z"  p-id="873"></path></svg>