<svg t="1765202624885" class="icon" viewBox="0 0 1035 1024" version="1.1" xmlns="http://www.w3.org/2000/svg" p-id="6004" width="200" height="200"><path d="M677.12 304.213333H146.773333L306.773333 159.146667a33.706667 33.706667 0 0 0 4.266667-46.933334L306.773333 108.373333a40.106667 40.106667 0 0 0-55.04 0L24.746667 313.173333a32.853333 32.853333 0 0 0 0 50.773334l222.72 204.8a40.106667 40.106667 0 0 0 55.04 0 32.853333 32.853333 0 0 0 4.266666-46.506667 20.053333 20.053333 0 0 0-4.266666-4.266667L148.906667 376.746667h528.213333a256 256 0 0 1 266.24 244.48 256 256 0 0 1-266.24 244.906666H273.066667a36.266667 36.266667 0 1 0 0 72.533334h404.053333c191.573333 0 345.173333-141.226667 345.173333-317.44s-153.6-317.013333-345.173333-317.013334z" p-id="6005"></path><path d="M677.12 940.8H273.066667a38.4 38.4 0 1 1 0-76.8h404.053333a275.2 275.2 0 0 0 187.306667-70.826667 230.4 230.4 0 0 0 0-341.333333 275.2 275.2 0 0 0-187.306667-70.826667H154.453333l149.76 135.253334 4.266667 4.693333a34.986667 34.986667 0 0 1-4.266667 49.493333 42.666667 42.666667 0 0 1-58.026666 0L23.04 365.653333a35.84 35.84 0 0 1 0-54.186666l224.853333-204.8A42.666667 42.666667 0 0 1 306.773333 106.666667l4.266667 4.266666a34.133333 34.133333 0 0 1 8.106667 26.026667 35.413333 35.413333 0 0 1-12.373334 23.893333L152.32 302.08h524.8c191.573333 0 347.306667 143.36 347.306667 319.146667s-155.733333 319.573333-347.306667 319.573333z m-404.053333-72.533333a34.133333 34.133333 0 1 0 0 68.266666h404.053333c189.013333 0 341.333333-141.226667 341.333333-315.306666s-153.6-314.88-341.333333-314.88H141.226667l4.266666-3.84 157.866667-145.066667a28.586667 28.586667 0 0 0 10.666667-20.906667 29.866667 29.866667 0 0 0-7.253334-22.613333 16.213333 16.213333 0 0 0-3.84-3.84 38.826667 38.826667 0 0 0-52.48 0L26.026667 314.88a30.72 30.72 0 0 0 0 47.36l223.146666 204.8a37.973333 37.973333 0 0 0 52.053334 0 32.853333 32.853333 0 0 0 11.093333-21.333333 29.866667 29.866667 0 0 0-5.546667-22.186667l-3.84-3.84-157.866666-145.066667h532.053333a281.6 281.6 0 0 1 190.293333 71.68 235.093333 235.093333 0 0 1 0 349.866667 279.893333 279.893333 0 0 1-190.293333 72.106667z" p-id="6006"></path><path d="M677.12 949.333333H273.066667a46.933333 46.933333 0 1 1 0-93.866666h404.053333a245.76 245.76 0 0 0 256-234.24 245.76 245.76 0 0 0-256-233.813334H176.213333L309.76 512a29.013333 29.013333 0 0 1 5.12 5.12 42.666667 42.666667 0 0 1-5.546667 61.44 50.773333 50.773333 0 0 1-69.12 0L17.493333 371.626667a42.666667 42.666667 0 0 1-15.36-32.853334 47.36 47.36 0 0 1 15.36-33.706666l224.853334-204.8a51.626667 51.626667 0 0 1 69.546666 0 58.026667 58.026667 0 0 1 5.12 5.12 42.666667 42.666667 0 0 1 9.813334 32 42.666667 42.666667 0 0 1-15.36 29.866666l-137.386667 128h503.04c196.266667 0 355.84 147.2 355.84 327.68s-159.573333 326.4-355.84 326.4z m-404.053333-72.533333a25.6 25.6 0 1 0 0 51.2h404.053333c184.32 0 334.506667-137.386667 334.506667-306.773333S861.44 314.88 677.12 314.88H119.466667l177.92-163.84a22.613333 22.613333 0 0 0 2.986666-32l-2.56-2.56a29.866667 29.866667 0 0 0-42.666666 0L31.573333 321.28a22.613333 22.613333 0 0 0 0 34.56l223.146667 205.226667a29.866667 29.866667 0 0 0 42.666667 0 22.186667 22.186667 0 0 0 3.413333-32l-2.986667-2.986667-176.213333-160h554.666667a267.093333 267.093333 0 0 1 276.906666 256 267.093333 267.093333 0 0 1-276.906666 256z" p-id="6007"></path><path d="M677.12 951.466667H273.066667a49.066667 49.066667 0 1 1 0-98.133334h404.053333a243.626667 243.626667 0 0 0 253.44-232.106666 243.626667 243.626667 0 0 0-253.44-231.68H181.76l128 119.04a32.853333 32.853333 0 0 1 5.12 5.546666 45.653333 45.653333 0 0 1-5.546667 64.426667 52.906667 52.906667 0 0 1-72.106666 0L15.786667 373.333333a46.08 46.08 0 0 1-15.786667-34.56 46.933333 46.933333 0 0 1 16.213333-34.986666l224.853334-204.8a52.48 52.48 0 0 1 72.106666 0 30.293333 30.293333 0 0 1 5.546667 5.12A46.506667 46.506667 0 0 1 312.746667 170.666667L178.773333 291.413333h498.346667c197.546667 0 357.973333 148.053333 357.973333 329.813334s-160.426667 330.24-357.973333 330.24z m-404.053333-93.866667a44.8 44.8 0 1 0 0 89.6h404.053333c194.986667 0 353.706667-146.346667 353.706667-325.973333s-158.72-325.546667-353.706667-325.546667H168.96l3.84-3.84 137.386667-128a42.666667 42.666667 0 0 0 14.506666-28.16 39.253333 39.253333 0 0 0-9.386666-30.293333l-4.693334-5.12a49.493333 49.493333 0 0 0-66.986666 0L18.773333 306.773333a44.8 44.8 0 0 0-14.506666 32 42.666667 42.666667 0 0 0 14.506666 31.146667l222.72 205.226667a49.066667 49.066667 0 0 0 66.56 0 42.666667 42.666667 0 0 0 14.933334-28.586667 42.666667 42.666667 0 0 0-9.386667-30.293333L306.773333 512 170.666667 384h506.453333a247.893333 247.893333 0 0 1 256 235.946667 247.893333 247.893333 0 0 1-256 236.373333z m404.053333 72.533333H273.066667a27.733333 27.733333 0 1 1 0-55.466666h404.053333a264.96 264.96 0 0 0 274.773333-253.44 264.96 264.96 0 0 0-274.773333-253.013334H126.72l170.666667 156.586667 2.986666 2.986667a24.32 24.32 0 0 1 5.546667 17.92 27.733333 27.733333 0 0 1-8.96 17.066666 32 32 0 0 1-42.666667 0L30.293333 357.546667a24.746667 24.746667 0 0 1-8.96-18.773334 25.6 25.6 0 0 1 8.96-19.2l224.853334-205.226666a32.426667 32.426667 0 0 1 42.666666 0l2.986667 2.986666a24.746667 24.746667 0 0 1-3.413333 34.986667L125.013333 312.746667h552.106667c185.6 0 336.64 138.24 336.64 308.48S861.44 930.133333 677.12 930.133333z m-404.053333-51.2a23.893333 23.893333 0 1 0 0 46.933334h404.053333c183.466667 0 332.373333-136.533333 332.373333-304.64S861.44 317.013333 677.12 317.013333H113.92l4.266667-3.84 177.92-163.413333a20.48 20.48 0 0 0 2.986666-29.013333l-2.56-2.56a27.733333 27.733333 0 0 0-38.4 0L33.28 322.56a22.613333 22.613333 0 0 0-7.68 16.213333 21.76 21.76 0 0 0 7.253333 15.36l223.146667 205.226667a28.16 28.16 0 0 0 37.973333 0 20.48 20.48 0 0 0 7.68-14.08 20.906667 20.906667 0 0 0-4.693333-14.933333l-2.56-2.56-178.346667-163.84h561.066667a269.226667 269.226667 0 0 1 279.04 256 269.226667 269.226667 0 0 1-279.04 256z" p-id="6008"></path></svg>